<mxfile host="Electron" modified="2024-03-28T17:12:48.942Z" agent="Mozilla/5.0 (Macintosh; Intel Mac OS X 10_15_7) AppleWebKit/537.36 (KHTML, like Gecko) draw.io/21.2.8 Chrome/112.0.5615.165 Electron/24.2.0 Safari/537.36" etag="5UGGZfnzVSp2IiW_syZr" version="21.2.8" type="device">
  <diagram id="pvcHViZdDIMTFeMT473b" name="Page-1">
    <mxGraphModel dx="1147" dy="783" grid="1" gridSize="10" guides="1" tooltips="1" connect="1" arrows="1" fold="1" page="1" pageScale="1" pageWidth="827" pageHeight="1169" math="0" shadow="0">
      <root>
        <mxCell id="0" />
        <mxCell id="1" parent="0" />
        <mxCell id="VQDzNpAeQq4l4-8cjjsg-9" style="edgeStyle=Arial Nova Light;rounded=1;orthogonalLoop=1;jettySize=auto;html=1;exitX=1;exitY=0.5;exitDx=0;exitDy=0;strokeColor=#464749;fontFamily=Arial Nova Light;fontColor=#464749;fillColor=#FFFFFF;" parent="1" source="VQDzNpAeQq4l4-8cjjsg-1" target="VQDzNpAeQq4l4-8cjjsg-2" edge="1">
          <mxGeometry relative="1" as="geometry" />
        </mxCell>
        <mxCell id="VQDzNpAeQq4l4-8cjjsg-1" value="Zero offset removal &amp;amp; clip" style="whiteSpace=wrap;html=1;aspect=fixed;strokeColor=#464749;fontFamily=Arial Nova Light;fontColor=#464749;fillColor=#FFFFFF;" parent="1" vertex="1">
          <mxGeometry x="120" y="120" width="80" height="80" as="geometry" />
        </mxCell>
        <mxCell id="VQDzNpAeQq4l4-8cjjsg-10" style="edgeStyle=Arial Nova Light;rounded=1;orthogonalLoop=1;jettySize=auto;html=1;exitX=1;exitY=0.5;exitDx=0;exitDy=0;strokeColor=#464749;fontFamily=Arial Nova Light;fontColor=#464749;fillColor=#FFFFFF;" parent="1" source="VQDzNpAeQq4l4-8cjjsg-2" target="VQDzNpAeQq4l4-8cjjsg-3" edge="1">
          <mxGeometry relative="1" as="geometry" />
        </mxCell>
        <mxCell id="VQDzNpAeQq4l4-8cjjsg-2" value="Moving Average&lt;br&gt;Filter" style="whiteSpace=wrap;html=1;aspect=fixed;strokeColor=#464749;fontFamily=Arial Nova Light;fontColor=#464749;fillColor=#FFFFFF;" parent="1" vertex="1">
          <mxGeometry x="240" y="120" width="80" height="80" as="geometry" />
        </mxCell>
        <mxCell id="VQDzNpAeQq4l4-8cjjsg-11" style="edgeStyle=Arial Nova Light;rounded=1;orthogonalLoop=1;jettySize=auto;html=1;exitX=1;exitY=0.5;exitDx=0;exitDy=0;entryX=0;entryY=0.5;entryDx=0;entryDy=0;strokeColor=#464749;fontFamily=Arial Nova Light;fontColor=#464749;fillColor=#FFFFFF;" parent="1" source="VQDzNpAeQq4l4-8cjjsg-3" edge="1">
          <mxGeometry relative="1" as="geometry">
            <mxPoint x="480" y="160" as="targetPoint" />
          </mxGeometry>
        </mxCell>
        <mxCell id="VQDzNpAeQq4l4-8cjjsg-3" value="Scale" style="whiteSpace=wrap;html=1;aspect=fixed;strokeColor=#464749;fontFamily=Arial Nova Light;fontColor=#464749;fillColor=#FFFFFF;" parent="1" vertex="1">
          <mxGeometry x="360" y="120" width="80" height="80" as="geometry" />
        </mxCell>
        <mxCell id="VQDzNpAeQq4l4-8cjjsg-5" value="Hysteresis" style="whiteSpace=wrap;html=1;aspect=fixed;strokeColor=#464749;fontFamily=Arial Nova Light;fontColor=#464749;fillColor=#FFFFFF;" parent="1" vertex="1">
          <mxGeometry x="480" y="120" width="80" height="80" as="geometry" />
        </mxCell>
        <mxCell id="VQDzNpAeQq4l4-8cjjsg-6" value="Result" style="text;html=1;align=center;verticalAlign=middle;resizable=0;points=[];autosize=1;strokeColor=none;fillColor=none;fontFamily=Arial Nova Light;fontColor=#464749;" parent="1" vertex="1">
          <mxGeometry x="600" y="145" width="50" height="30" as="geometry" />
        </mxCell>
        <mxCell id="VQDzNpAeQq4l4-8cjjsg-7" value="Raw time" style="text;html=1;align=center;verticalAlign=middle;resizable=0;points=[];autosize=1;strokeColor=none;fillColor=none;fontFamily=Arial Nova Light;fontColor=#464749;" parent="1" vertex="1">
          <mxGeometry x="30" y="145" width="70" height="30" as="geometry" />
        </mxCell>
        <mxCell id="VQDzNpAeQq4l4-8cjjsg-8" value="" style="endArrow=classic;html=1;rounded=1;strokeColor=#464749;fontFamily=Arial Nova Light;fontColor=#464749;fillColor=#FFFFFF;entryX=0;entryY=0.5;entryDx=0;entryDy=0;" parent="1" target="VQDzNpAeQq4l4-8cjjsg-1" edge="1">
          <mxGeometry width="50" height="50" relative="1" as="geometry">
            <mxPoint x="98" y="160" as="sourcePoint" />
            <mxPoint x="440" y="410" as="targetPoint" />
          </mxGeometry>
        </mxCell>
        <mxCell id="VQDzNpAeQq4l4-8cjjsg-13" style="edgeStyle=Arial Nova Light;rounded=1;orthogonalLoop=1;jettySize=auto;html=1;exitX=1;exitY=0.5;exitDx=0;exitDy=0;entryX=-0.02;entryY=0.5;entryDx=0;entryDy=0;entryPerimeter=0;strokeColor=#464749;fontFamily=Arial Nova Light;fontColor=#464749;fillColor=#FFFFFF;" parent="1" source="VQDzNpAeQq4l4-8cjjsg-5" target="VQDzNpAeQq4l4-8cjjsg-6" edge="1">
          <mxGeometry relative="1" as="geometry" />
        </mxCell>
      </root>
    </mxGraphModel>
  </diagram>
</mxfile>
